<svg xmlns="http://www.w3.org/2000/svg" xmlns:xlink="http://www.w3.org/1999/xlink" width="400" zoomAndPan="magnify" viewBox="0 0 300 374.999991" height="500" preserveAspectRatio="xMidYMid meet" version="1.0"><defs><clipPath id="0ba0a9a185"><path d="M 57.476562 94.976562 L 242.726562 94.976562 L 242.726562 280.226562 L 57.476562 280.226562 Z M 57.476562 94.976562 " clip-rule="nonzero"/></clipPath></defs><path fill="#ffffff" d="M 150.097656 95.902344 C 151.597656 95.902344 153.097656 95.9375 154.597656 96.011719 C 156.097656 96.085938 157.59375 96.195312 159.085938 96.34375 C 160.582031 96.488281 162.070312 96.675781 163.554688 96.894531 C 165.039062 97.113281 166.515625 97.371094 167.988281 97.664062 C 169.460938 97.957031 170.925781 98.285156 172.378906 98.648438 C 173.835938 99.015625 175.28125 99.414062 176.71875 99.851562 C 178.152344 100.285156 179.578125 100.757812 180.992188 101.261719 C 182.402344 101.765625 183.804688 102.308594 185.191406 102.882812 C 186.578125 103.457031 187.949219 104.0625 189.304688 104.707031 C 190.660156 105.347656 192 106.023438 193.324219 106.730469 C 194.648438 107.4375 195.953125 108.175781 197.242188 108.949219 C 198.527344 109.71875 199.796875 110.523438 201.042969 111.355469 C 202.292969 112.1875 203.519531 113.054688 204.722656 113.945312 C 205.929688 114.839844 207.113281 115.765625 208.273438 116.714844 C 209.433594 117.667969 210.566406 118.648438 211.679688 119.65625 C 212.792969 120.664062 213.878906 121.699219 214.941406 122.757812 C 216 123.820312 217.035156 124.90625 218.042969 126.019531 C 219.050781 127.132812 220.03125 128.265625 220.984375 129.425781 C 221.933594 130.585938 222.859375 131.769531 223.75 132.976562 C 224.644531 134.179688 225.511719 135.40625 226.34375 136.65625 C 227.175781 137.902344 227.980469 139.171875 228.75 140.457031 C 229.523438 141.746094 230.261719 143.050781 230.96875 144.375 C 231.675781 145.699219 232.351562 147.039062 232.992188 148.394531 C 233.636719 149.75 234.242188 151.121094 234.816406 152.507812 C 235.390625 153.894531 235.933594 155.292969 236.4375 156.707031 C 236.941406 158.121094 237.414062 159.546875 237.847656 160.980469 C 238.285156 162.417969 238.683594 163.863281 239.050781 165.320312 C 239.414062 166.773438 239.742188 168.238281 240.035156 169.710938 C 240.328125 171.183594 240.585938 172.660156 240.804688 174.144531 C 241.023438 175.628906 241.207031 177.117188 241.355469 178.613281 C 241.503906 180.105469 241.613281 181.601562 241.6875 183.101562 C 241.761719 184.601562 241.796875 186.097656 241.796875 187.601562 C 241.796875 189.101562 241.761719 190.601562 241.6875 192.101562 C 241.613281 193.597656 241.503906 195.09375 241.355469 196.589844 C 241.207031 198.082031 241.023438 199.570312 240.804688 201.054688 C 240.585938 202.539062 240.328125 204.019531 240.035156 205.488281 C 239.742188 206.960938 239.414062 208.425781 239.050781 209.882812 C 238.683594 211.335938 238.285156 212.78125 237.847656 214.21875 C 237.414062 215.65625 236.941406 217.078125 236.4375 218.492188 C 235.933594 219.90625 235.390625 221.304688 234.816406 222.691406 C 234.242188 224.078125 233.636719 225.449219 232.992188 226.804688 C 232.351562 228.164062 231.675781 229.503906 230.96875 230.828125 C 230.261719 232.148438 229.523438 233.457031 228.75 234.742188 C 227.980469 236.03125 227.175781 237.296875 226.34375 238.546875 C 225.511719 239.792969 224.644531 241.019531 223.753906 242.226562 C 222.859375 243.429688 221.933594 244.613281 220.984375 245.773438 C 220.03125 246.933594 219.050781 248.070312 218.042969 249.179688 C 217.035156 250.292969 216 251.378906 214.941406 252.441406 C 213.878906 253.503906 212.792969 254.535156 211.679688 255.542969 C 210.566406 256.550781 209.433594 257.53125 208.273438 258.484375 C 207.113281 259.4375 205.929688 260.359375 204.722656 261.253906 C 203.519531 262.148438 202.292969 263.011719 201.042969 263.84375 C 199.796875 264.679688 198.527344 265.480469 197.242188 266.253906 C 195.953125 267.023438 194.648438 267.765625 193.324219 268.472656 C 192 269.179688 190.660156 269.851562 189.304688 270.496094 C 187.949219 271.136719 186.578125 271.746094 185.191406 272.320312 C 183.804688 272.894531 182.402344 273.433594 180.992188 273.9375 C 179.578125 274.445312 178.152344 274.914062 176.71875 275.351562 C 175.28125 275.785156 173.835938 276.1875 172.378906 276.550781 C 170.925781 276.914062 169.460938 277.246094 167.988281 277.535156 C 166.515625 277.828125 165.039062 278.085938 163.554688 278.304688 C 162.070312 278.527344 160.582031 278.710938 159.085938 278.859375 C 157.59375 279.003906 156.097656 279.113281 154.597656 279.1875 C 153.097656 279.261719 151.597656 279.300781 150.097656 279.300781 C 148.597656 279.300781 147.097656 279.261719 145.597656 279.1875 C 144.101562 279.113281 142.605469 279.003906 141.109375 278.859375 C 139.617188 278.710938 138.128906 278.527344 136.644531 278.304688 C 135.160156 278.085938 133.679688 277.828125 132.210938 277.535156 C 130.738281 277.246094 129.273438 276.914062 127.816406 276.550781 C 126.363281 276.1875 124.917969 275.785156 123.480469 275.351562 C 122.042969 274.914062 120.621094 274.445312 119.207031 273.9375 C 117.792969 273.433594 116.394531 272.894531 115.007812 272.320312 C 113.621094 271.746094 112.25 271.136719 110.890625 270.496094 C 109.535156 269.851562 108.195312 269.179688 106.871094 268.472656 C 105.550781 267.765625 104.242188 267.023438 102.957031 266.253906 C 101.667969 265.480469 100.402344 264.679688 99.152344 263.84375 C 97.90625 263.011719 96.679688 262.148438 95.472656 261.253906 C 94.269531 260.359375 93.085938 259.4375 91.925781 258.484375 C 90.765625 257.53125 89.628906 256.550781 88.519531 255.542969 C 87.40625 254.535156 86.320312 253.503906 85.257812 252.441406 C 84.195312 251.378906 83.164062 250.292969 82.15625 249.179688 C 81.148438 248.070312 80.167969 246.933594 79.214844 245.773438 C 78.261719 244.613281 77.339844 243.429688 76.445312 242.226562 C 75.550781 241.019531 74.6875 239.792969 73.855469 238.546875 C 73.019531 237.296875 72.21875 236.03125 71.445312 234.742188 C 70.675781 233.457031 69.933594 232.148438 69.226562 230.828125 C 68.519531 229.503906 67.847656 228.164062 67.203125 226.804688 C 66.5625 225.449219 65.953125 224.078125 65.378906 222.691406 C 64.804688 221.304688 64.265625 219.90625 63.761719 218.492188 C 63.253906 217.078125 62.785156 215.65625 62.347656 214.21875 C 61.914062 212.78125 61.511719 211.335938 61.148438 209.882812 C 60.785156 208.425781 60.453125 206.960938 60.160156 205.488281 C 59.871094 204.019531 59.613281 202.539062 59.394531 201.054688 C 59.171875 199.570312 58.988281 198.082031 58.839844 196.589844 C 58.695312 195.09375 58.585938 193.597656 58.511719 192.101562 C 58.4375 190.601562 58.398438 189.101562 58.398438 187.601562 C 58.398438 186.097656 58.4375 184.601562 58.511719 183.101562 C 58.585938 181.601562 58.695312 180.105469 58.839844 178.613281 C 58.988281 177.117188 59.171875 175.628906 59.394531 174.144531 C 59.613281 172.660156 59.871094 171.183594 60.160156 169.710938 C 60.453125 168.238281 60.785156 166.773438 61.148438 165.320312 C 61.511719 163.863281 61.914062 162.417969 62.347656 160.980469 C 62.785156 159.546875 63.253906 158.121094 63.761719 156.707031 C 64.265625 155.292969 64.804688 153.894531 65.378906 152.507812 C 65.953125 151.121094 66.5625 149.75 67.203125 148.394531 C 67.847656 147.039062 68.519531 145.699219 69.226562 144.375 C 69.933594 143.050781 70.675781 141.746094 71.445312 140.457031 C 72.21875 139.171875 73.019531 137.902344 73.855469 136.65625 C 74.6875 135.40625 75.550781 134.179688 76.445312 132.976562 C 77.339844 131.769531 78.261719 130.585938 79.214844 129.425781 C 80.167969 128.265625 81.148438 127.132812 82.15625 126.019531 C 83.164062 124.90625 84.195312 123.820312 85.257812 122.757812 C 86.320312 121.699219 87.40625 120.664062 88.519531 119.65625 C 89.628906 118.648438 90.765625 117.667969 91.925781 116.714844 C 93.085938 115.765625 94.269531 114.839844 95.472656 113.945312 C 96.679688 113.054688 97.90625 112.1875 99.152344 111.355469 C 100.402344 110.523438 101.667969 109.71875 102.957031 108.949219 C 104.242188 108.175781 105.550781 107.4375 106.871094 106.730469 C 108.195312 106.023438 109.535156 105.347656 110.890625 104.707031 C 112.25 104.0625 113.621094 103.457031 115.007812 102.882812 C 116.394531 102.308594 117.792969 101.765625 119.207031 101.261719 C 120.621094 100.757812 122.042969 100.285156 123.480469 99.851562 C 124.917969 99.414062 126.363281 99.015625 127.816406 98.648438 C 129.273438 98.285156 130.738281 97.957031 132.210938 97.664062 C 133.679688 97.371094 135.160156 97.113281 136.644531 96.894531 C 138.128906 96.675781 139.617188 96.488281 141.109375 96.34375 C 142.605469 96.195312 144.101562 96.085938 145.597656 96.011719 C 147.097656 95.9375 148.597656 95.902344 150.097656 95.902344 Z M 150.097656 95.902344 " fill-opacity="1" fill-rule="nonzero"/><g clip-path="url(#0ba0a9a185)"><path stroke-linecap="round" transform="matrix(0.000000000000000023, -0.3705, 0.3705, 0.000000000000000023, 55.776955, -107.610389)" fill="none" stroke-linejoin="miter" d="M -549.292187 254.576819 C -549.292187 258.625403 -549.387076 262.673986 -549.587396 266.72257 C -549.787717 270.771153 -550.082926 274.809193 -550.483567 278.836691 C -550.873665 282.874731 -551.379738 286.891685 -551.970156 290.898095 C -552.560575 294.904506 -553.256425 298.88983 -554.047164 302.864612 C -554.837903 306.839393 -555.72353 310.793087 -556.704047 314.715153 C -557.695106 318.647761 -558.770511 322.54874 -559.951348 326.428632 C -561.121642 330.297982 -562.397367 334.146245 -563.757438 337.962878 C -565.117509 341.768968 -566.583012 345.553972 -568.13286 349.296803 C -569.682709 353.039634 -571.316903 356.740292 -573.056528 360.398778 C -574.785611 364.057263 -576.609582 367.673576 -578.517899 371.247716 C -580.426215 374.821856 -582.418878 378.34328 -584.506428 381.822532 C -586.583436 385.29124 -588.755332 388.717776 -591.001031 392.081052 C -593.24673 395.454871 -595.587317 398.765432 -597.991163 402.012733 C -600.405553 405.270578 -602.904288 408.465163 -605.466282 411.596489 C -608.03882 414.727816 -610.685159 417.78534 -613.405301 420.790148 C -616.125443 423.794956 -618.919388 426.725961 -621.776591 429.593708 C -624.644338 432.450911 -627.575343 435.244856 -630.580151 437.964998 C -633.584959 440.68514 -636.642483 443.331479 -639.77381 445.904017 C -642.905136 448.466011 -646.099721 450.964746 -649.357566 453.368592 C -652.604867 455.782982 -655.915428 458.123569 -659.289247 460.369268 C -662.652523 462.614967 -666.079059 464.786863 -669.547767 466.863871 C -673.027019 468.951421 -676.548443 470.944084 -680.122583 472.8524 C -683.696723 474.760717 -687.313036 476.584688 -690.971521 478.313771 C -694.630007 480.053396 -698.330665 481.68759 -702.073496 483.237439 C -705.816327 484.787287 -709.590788 486.25279 -713.407421 487.612861 C -717.224054 488.972932 -721.072317 490.248657 -724.941667 491.418951 C -728.821559 492.599788 -732.722538 493.675193 -736.655146 494.666252 C -740.577212 495.646769 -744.530906 496.532396 -748.505688 497.323135 C -752.480469 498.113874 -756.465793 498.809724 -760.472204 499.400143 C -764.478614 499.990561 -768.495568 500.486091 -772.533609 500.886732 C -776.561106 501.287373 -780.599146 501.582582 -784.647729 501.782903 C -788.696313 501.983223 -792.734353 502.078112 -796.79348 502.078112 C -800.842063 502.078112 -804.890647 501.983223 -808.93923 501.782903 C -812.97727 501.582582 -817.01531 501.287373 -821.053351 500.886732 C -825.080848 500.486091 -829.097802 499.990561 -833.104212 499.400143 C -837.110623 498.809724 -841.106491 498.113874 -845.070729 497.323135 C -849.04551 496.532396 -852.999204 495.646769 -856.931813 494.666252 C -860.853878 493.675193 -864.754857 492.599788 -868.634749 491.418951 C -872.514642 490.248657 -876.352362 488.972932 -880.168995 487.612861 C -883.985628 486.25279 -887.760089 484.787287 -891.50292 483.237439 C -895.245751 481.68759 -898.946409 480.053396 -902.604895 478.313771 C -906.273924 476.584688 -909.890236 474.760717 -913.464377 472.8524 C -917.027973 470.944084 -920.559941 468.951421 -924.028649 466.863871 C -927.5079 464.786863 -930.923893 462.614967 -934.297712 460.369268 C -937.660989 458.123569 -940.971549 455.782982 -944.229393 453.379136 C -947.476695 450.964746 -950.67128 448.466011 -953.802606 445.904017 C -956.933933 443.331479 -960.002 440.68514 -962.996265 437.964998 C -966.001073 435.244856 -968.932078 432.450911 -971.799825 429.593708 C -974.667572 426.725961 -977.450973 423.794956 -980.171115 420.790148 C -982.891257 417.78534 -985.537596 414.727816 -988.110134 411.596489 C -990.682671 408.465163 -993.170863 405.270578 -995.585253 402.012733 C -997.999642 398.765432 -1000.329686 395.454871 -1002.575385 392.081052 C -1004.831627 388.717776 -1006.99298 385.29124 -1009.080531 381.822532 C -1011.157539 378.34328 -1013.160744 374.821856 -1015.069061 371.247716 C -1016.977377 367.673576 -1018.790805 364.057263 -1020.530431 360.398778 C -1022.259513 356.740292 -1023.90425 353.039634 -1025.454099 349.296803 C -1027.003947 345.553972 -1028.458907 341.768968 -1029.818978 337.962878 C -1031.189592 334.146245 -1032.454774 330.297982 -1033.635611 326.428632 C -1034.805905 322.54874 -1035.891853 318.647761 -1036.872369 314.715153 C -1037.852886 310.793087 -1038.749056 306.839393 -1039.529252 302.864612 C -1040.319991 298.88983 -1041.015841 294.904506 -1041.60626 290.898095 C -1042.207221 286.891685 -1042.702751 282.874731 -1043.103392 278.836691 C -1043.49349 274.809193 -1043.788699 270.771153 -1043.98902 266.72257 C -1044.18934 262.673986 -1044.294772 258.625403 -1044.294772 254.576819 C -1044.294772 250.528236 -1044.18934 246.479652 -1043.98902 242.431069 C -1043.788699 238.393029 -1043.49349 234.354989 -1043.103392 230.316948 C -1042.702751 226.289451 -1042.207221 222.272497 -1041.60626 218.266087 C -1041.015841 214.259676 -1040.319991 210.263808 -1039.529252 206.29957 C -1038.749056 202.324789 -1037.852886 198.371095 -1036.872369 194.438486 C -1035.891853 190.516421 -1034.805905 186.615442 -1033.635611 182.73555 C -1032.454774 178.855657 -1031.189592 175.017937 -1029.818978 171.201304 C -1028.458907 167.384671 -1027.003947 163.61021 -1025.454099 159.867379 C -1023.90425 156.124548 -1022.259513 152.42389 -1020.530431 148.754861 C -1018.790805 145.096375 -1016.977377 141.480063 -1015.069061 137.905922 C -1013.160744 134.342326 -1011.157539 130.810358 -1009.080531 127.34165 C -1006.99298 123.862399 -1004.831627 120.446406 -1002.575385 117.072587 C -1000.329686 113.70931 -997.999642 110.39875 -995.585253 107.140906 C -993.170863 103.893604 -990.682671 100.699019 -988.110134 97.567693 C -985.537596 94.436366 -982.891257 91.368299 -980.171115 88.374034 C -977.450973 85.369226 -974.667572 82.438221 -971.799825 79.570474 C -968.932078 76.702727 -966.001073 73.919326 -962.996265 71.199184 C -960.002 68.479042 -956.933933 65.832703 -953.802606 63.260165 C -950.67128 60.687628 -947.476695 58.199436 -944.229393 55.785046 C -940.971549 53.370657 -937.660989 51.040613 -934.297712 48.794914 C -930.923893 46.538672 -927.5079 44.377319 -924.028649 42.289768 C -920.559941 40.212761 -917.027973 38.209555 -913.464377 36.301238 C -909.890236 34.392922 -906.273924 32.579494 -902.604895 30.839868 C -898.946409 29.110786 -895.245751 27.466049 -891.50292 25.9162 C -887.760089 24.366352 -883.985628 22.911392 -880.168995 21.551321 C -876.352362 20.180707 -872.514642 18.915525 -868.634749 17.734688 C -864.754857 16.564394 -860.853878 15.478446 -856.931813 14.49793 C -852.999204 13.517413 -849.04551 12.621243 -845.070729 11.830504 C -841.106491 11.050308 -837.110623 10.354458 -833.104212 9.764039 C -829.097802 9.163078 -825.080848 8.667548 -821.053351 8.266907 C -817.01531 7.876809 -812.97727 7.5816 -808.93923 7.381279 C -804.890647 7.180959 -800.842063 7.075527 -796.79348 7.075527 C -792.734353 7.075527 -788.696313 7.180959 -784.647729 7.381279 C -780.599146 7.5816 -776.561106 7.876809 -772.533609 8.266907 C -768.495568 8.667548 -764.478614 9.163078 -760.472204 9.764039 C -756.465793 10.354458 -752.480469 11.050308 -748.505688 11.830504 C -744.530906 12.621243 -740.577212 13.517413 -736.655146 14.49793 C -732.722538 15.478446 -728.821559 16.564394 -724.941667 17.734688 C -721.072317 18.915525 -717.224054 20.180707 -713.407421 21.551321 C -709.590788 22.911392 -705.816327 24.366352 -702.073496 25.9162 C -698.330665 27.466049 -694.630007 29.110786 -690.971521 30.839868 C -687.313036 32.579494 -683.696723 34.392922 -680.122583 36.301238 C -676.548443 38.209555 -673.027019 40.212761 -669.547767 42.289768 C -666.079059 44.377319 -662.652523 46.538672 -659.289247 48.794914 C -655.915428 51.040613 -652.604867 53.370657 -649.357566 55.785046 C -646.099721 58.199436 -642.905136 60.687628 -639.77381 63.260165 C -636.642483 65.832703 -633.584959 68.479042 -630.580151 71.199184 C -627.575343 73.919326 -624.644338 76.702727 -621.776591 79.570474 C -618.919388 82.438221 -616.125443 85.369226 -613.405301 88.374034 C -610.685159 91.368299 -608.03882 94.436366 -605.466282 97.567693 C -602.904288 100.699019 -600.405553 103.893604 -597.991163 107.140906 C -595.587317 110.39875 -593.24673 113.70931 -591.001031 117.072587 C -588.755332 120.446406 -586.583436 123.862399 -584.506428 127.34165 C -582.418878 130.810358 -580.426215 134.342326 -578.517899 137.905922 C -576.609582 141.480063 -574.785611 145.096375 -573.056528 148.754861 C -571.316903 152.42389 -569.682709 156.124548 -568.13286 159.867379 C -566.583012 163.61021 -565.117509 167.384671 -563.757438 171.201304 C -562.397367 175.017937 -561.121642 178.855657 -559.951348 182.73555 C -558.770511 186.615442 -557.695106 190.516421 -556.704047 194.438486 C -555.72353 198.371095 -554.837903 202.324789 -554.047164 206.29957 C -553.256425 210.263808 -552.560575 214.259676 -551.970156 218.266087 C -551.379738 222.272497 -550.873665 226.289451 -550.483567 230.316948 C -550.082926 234.354989 -549.787717 238.393029 -549.587396 242.431069 C -549.387076 246.479652 -549.292187 250.528236 -549.292187 254.576819 Z M -549.292187 254.576819 " stroke="#004455" stroke-width="5" stroke-opacity="1" stroke-miterlimit="4"/></g><path stroke-linecap="round" transform="matrix(0.3705, 0, 0, 0.3705, 63.407769, -104.458558)" fill-opacity="1" fill="#008080" fill-rule="evenodd" stroke-linejoin="miter" d="M 93.535047 670.150113 L 374.42661 670.150113 C 375.291151 670.150113 376.145149 670.234458 376.999147 670.403149 C 377.842602 670.57184 378.66497 670.824877 379.466253 671.151715 C 380.256992 671.478554 381.016101 671.889738 381.733038 672.364182 C 382.449974 672.849168 383.114195 673.386871 383.7257 673.998376 C 384.337205 674.60988 384.88545 675.274101 385.359894 675.991038 C 385.84488 676.707974 386.245521 677.467084 386.582903 678.268366 C 386.909742 679.069648 387.162778 679.892017 387.331469 680.735471 C 387.50016 681.578926 387.584506 682.432924 387.584506 683.297466 L 387.584506 893.275559 C 387.584506 894.1401 387.50016 894.994099 387.331469 895.848097 C 387.162778 896.691551 386.909742 897.51392 386.582903 898.315202 C 386.245521 899.105941 385.84488 899.86505 385.359894 900.581987 C 384.88545 901.298924 384.337205 901.963145 383.7257 902.574649 C 383.114195 903.186154 382.449974 903.7344 381.733038 904.208843 C 381.016101 904.69383 380.256992 905.094471 379.466253 905.431853 C 378.66497 905.758691 377.842602 906.011728 376.999147 906.180419 C 376.145149 906.34911 375.291151 906.433455 374.42661 906.433455 L 93.535047 906.433455 C 92.670505 906.433455 91.816507 906.34911 90.962509 906.180419 C 90.119054 906.011728 89.296686 905.758691 88.495404 905.431853 C 87.704665 905.094471 86.945555 904.69383 86.228619 904.208843 C 85.511682 903.7344 84.847461 903.186154 84.235957 902.574649 C 83.624452 901.963145 83.076206 901.298924 82.59122 900.581987 C 82.116776 899.86505 81.716135 899.105941 81.378753 898.315202 C 81.051914 897.51392 80.798878 896.691551 80.630187 895.848097 C 80.461496 894.994099 80.377151 894.1401 80.377151 893.275559 L 80.377151 683.297466 C 80.377151 682.432924 80.461496 681.578926 80.630187 680.735471 C 80.798878 679.892017 81.051914 679.069648 81.378753 678.268366 C 81.716135 677.467084 82.116776 676.707974 82.59122 675.991038 C 83.076206 675.274101 83.624452 674.60988 84.235957 673.998376 C 84.847461 673.386871 85.511682 672.849168 86.228619 672.364182 C 86.945555 671.889738 87.704665 671.478554 88.495404 671.151715 C 89.296686 670.824877 90.119054 670.57184 90.962509 670.403149 C 91.816507 670.234458 92.670505 670.150113 93.535047 670.150113 Z M 93.535047 670.150113 " stroke="#004455" stroke-width="5" stroke-opacity="1" stroke-miterlimit="4"/><path stroke-linecap="round" transform="matrix(5.842784, 0, 0, 4.501945, -80.416616, -3657.145776)" fill-opacity="1" fill="#00ccff" fill-rule="evenodd" stroke-linejoin="miter" d="M 48.077233 863.419687 L 34.016754 863.419687 L 41.047327 851.242657 Z M 48.077233 863.419687 " stroke="#004455" stroke-width="0.361" stroke-opacity="1" stroke-miterlimit="4"/><path stroke-linecap="round" transform="matrix(4.258156, 0, 0, 3.756129, -48.864831, -3013.105338)" fill-opacity="1" fill="#00ccff" fill-rule="evenodd" stroke-linejoin="miter" d="M 48.077221 863.420153 L 34.016887 863.420153 L 41.047513 851.243179 Z M 48.077221 863.420153 " stroke="#004455" stroke-width="0.463" stroke-opacity="1" stroke-miterlimit="4"/><path stroke-linecap="round" transform="matrix(0.3705, 0, 0, 0.3705, 63.407769, -104.458558)" fill-opacity="1" fill="#00ccff" fill-rule="nonzero" stroke-linejoin="miter" d="M 164.100591 726.767022 C 164.100591 728.749141 163.910814 730.710173 163.531259 732.65012 C 163.151704 734.600609 162.582372 736.487839 161.833806 738.311811 C 161.08524 740.146325 160.167983 741.885951 159.082034 743.530688 C 157.996086 745.175425 156.762533 746.693643 155.381376 748.095887 C 154.000219 749.498131 152.503086 750.75277 150.879436 751.849261 C 149.245242 752.945753 147.537246 753.884096 145.723818 754.632663 C 143.920933 755.391772 142.065332 755.971647 140.146472 756.351202 C 138.227612 756.7413 136.298209 756.931077 134.337177 756.931077 C 132.386687 756.931077 130.446741 756.7413 128.538424 756.351202 C 126.619565 755.971647 124.753421 755.391772 122.950536 754.632663 C 121.147651 753.884096 119.429112 752.945753 117.805461 751.849261 C 116.18181 750.75277 114.674135 749.498131 113.292977 748.095887 C 111.91182 746.693643 110.678267 745.175425 109.592319 743.530688 C 108.506371 741.885951 107.589114 740.146325 106.840548 738.311811 C 106.091981 736.487839 105.533192 734.600609 105.153638 732.65012 C 104.774083 730.710173 104.573763 728.749141 104.573763 726.767022 C 104.573763 724.784903 104.774083 722.82387 105.153638 720.883924 C 105.533192 718.943978 106.091981 717.056747 106.840548 715.222233 C 107.589114 713.398262 108.506371 711.658636 109.592319 710.013899 C 110.678267 708.369162 111.91182 706.8404 113.292977 705.438156 C 114.674135 704.035913 116.18181 702.791817 117.805461 701.695325 C 119.429112 700.588291 121.147651 699.66049 122.950536 698.901381 C 124.753421 698.142272 126.619565 697.57294 128.538424 697.182842 C 130.446741 696.803287 132.386687 696.602967 134.337177 696.602967 C 136.298209 696.602967 138.227612 696.803287 140.146472 697.182842 C 142.065332 697.57294 143.920933 698.142272 145.723818 698.901381 C 147.537246 699.66049 149.245242 700.588291 150.879436 701.695325 C 152.503086 702.791817 154.000219 704.035913 155.381376 705.438156 C 156.762533 706.8404 157.996086 708.369162 159.082034 710.013899 C 160.167983 711.658636 161.08524 713.398262 161.833806 715.222233 C 162.582372 717.056747 163.151704 718.943978 163.531259 720.883924 C 163.910814 722.82387 164.100591 724.784903 164.100591 726.767022 Z M 164.100591 726.767022 " stroke="#004455" stroke-width="5" stroke-opacity="1" stroke-miterlimit="4"/></svg>